<mxfile host="Electron" agent="Mozilla/5.0 (X11; Linux x86_64) AppleWebKit/537.36 (KHTML, like Gecko) draw.io/24.7.5 Chrome/126.0.6478.183 Electron/31.3.0 Safari/537.36" version="24.7.5">
  <diagram name="Page-1" id="36qb02-Rw7FwHsLuAy7y">
    <mxGraphModel dx="2165" dy="1707" grid="1" gridSize="10" guides="1" tooltips="1" connect="1" arrows="1" fold="1" page="1" pageScale="1" pageWidth="850" pageHeight="1100" math="0" shadow="0">
      <root>
        <mxCell id="0" />
        <mxCell id="1" parent="0" />
        <mxCell id="XJdJU15z8RzolVHAvxH--1" value="&lt;font style=&quot;font-size: 16px;&quot;&gt;tree:Node&lt;/font&gt;" style="ellipse;whiteSpace=wrap;html=1;aspect=fixed;" parent="1" vertex="1">
          <mxGeometry x="30" y="190" width="80" height="80" as="geometry" />
        </mxCell>
        <mxCell id="XJdJU15z8RzolVHAvxH--4" value="&lt;font style=&quot;font-size: 17px;&quot;&gt;tree:relation(s)&lt;/font&gt;" style="swimlane;fontStyle=0;childLayout=stackLayout;horizontal=1;startSize=30;horizontalStack=0;resizeParent=1;resizeParentMax=0;resizeLast=0;collapsible=1;marginBottom=0;whiteSpace=wrap;html=1;" parent="1" vertex="1">
          <mxGeometry x="130" y="110" width="360" height="90" as="geometry" />
        </mxCell>
        <mxCell id="XJdJU15z8RzolVHAvxH--5" value="&lt;font style=&quot;font-size: 17px;&quot;&gt;etsi:hasTimestamp &amp;lt;&amp;nbsp;&lt;/font&gt;&lt;span style=&quot;font-size: 17px;&quot;&gt;2022-01-03T09:47:59Z&lt;/span&gt;" style="text;strokeColor=none;fillColor=none;align=left;verticalAlign=middle;spacingLeft=4;spacingRight=4;overflow=hidden;points=[[0,0.5],[1,0.5]];portConstraint=eastwest;rotatable=0;whiteSpace=wrap;html=1;" parent="XJdJU15z8RzolVHAvxH--4" vertex="1">
          <mxGeometry y="30" width="360" height="30" as="geometry" />
        </mxCell>
        <mxCell id="XJdJU15z8RzolVHAvxH--6" value="&lt;font style=&quot;font-size: 17px;&quot;&gt;etsi:hasTimestamp &amp;gt;= 2022-01-03T09:47:59Z&lt;/font&gt;" style="text;strokeColor=#82b366;fillColor=#d5e8d4;align=left;verticalAlign=middle;spacingLeft=4;spacingRight=4;overflow=hidden;points=[[0,0.5],[1,0.5]];portConstraint=eastwest;rotatable=0;whiteSpace=wrap;html=1;" parent="XJdJU15z8RzolVHAvxH--4" vertex="1">
          <mxGeometry y="60" width="360" height="30" as="geometry" />
        </mxCell>
        <mxCell id="XJdJU15z8RzolVHAvxH--9" value="&lt;span style=&quot;font-weight: normal;&quot;&gt;&lt;font style=&quot;font-size: 17px;&quot;&gt;rest of the triples&lt;/font&gt;&lt;/span&gt;" style="swimlane;whiteSpace=wrap;html=1;startSize=23;" parent="1" vertex="1">
          <mxGeometry x="70" y="300" width="200" height="40" as="geometry" />
        </mxCell>
        <mxCell id="XJdJU15z8RzolVHAvxH--10" value="" style="endArrow=none;dashed=1;html=1;dashPattern=1 3;strokeWidth=2;rounded=0;exitX=1;exitY=0.5;exitDx=0;exitDy=0;entryX=0;entryY=0.5;entryDx=0;entryDy=0;" parent="1" source="XJdJU15z8RzolVHAvxH--1" target="XJdJU15z8RzolVHAvxH--5" edge="1">
          <mxGeometry width="50" height="50" relative="1" as="geometry">
            <mxPoint x="400" y="430" as="sourcePoint" />
            <mxPoint x="450" y="380" as="targetPoint" />
          </mxGeometry>
        </mxCell>
        <mxCell id="XJdJU15z8RzolVHAvxH--11" value="" style="endArrow=none;dashed=1;html=1;dashPattern=1 3;strokeWidth=2;rounded=0;exitX=1;exitY=0.5;exitDx=0;exitDy=0;entryX=0.5;entryY=0;entryDx=0;entryDy=0;" parent="1" source="XJdJU15z8RzolVHAvxH--1" target="XJdJU15z8RzolVHAvxH--9" edge="1">
          <mxGeometry width="50" height="50" relative="1" as="geometry">
            <mxPoint x="400" y="430" as="sourcePoint" />
            <mxPoint x="450" y="380" as="targetPoint" />
          </mxGeometry>
        </mxCell>
        <mxCell id="XJdJU15z8RzolVHAvxH--12" value="&lt;font style=&quot;font-size: 16px;&quot;&gt;tree:Node&lt;/font&gt;" style="ellipse;whiteSpace=wrap;html=1;aspect=fixed;" parent="1" vertex="1">
          <mxGeometry x="550" y="50" width="80" height="80" as="geometry" />
        </mxCell>
        <mxCell id="XJdJU15z8RzolVHAvxH--13" value="&lt;font style=&quot;font-size: 16px;&quot;&gt;tree:Node&lt;/font&gt;" style="ellipse;whiteSpace=wrap;html=1;aspect=fixed;fillColor=#d5e8d4;strokeColor=#82b366;" parent="1" vertex="1">
          <mxGeometry x="550" y="220" width="80" height="80" as="geometry" />
        </mxCell>
        <mxCell id="XJdJU15z8RzolVHAvxH--15" style="edgeStyle=orthogonalEdgeStyle;rounded=0;orthogonalLoop=1;jettySize=auto;html=1;entryX=0;entryY=0.5;entryDx=0;entryDy=0;" parent="1" source="XJdJU15z8RzolVHAvxH--5" target="XJdJU15z8RzolVHAvxH--12" edge="1">
          <mxGeometry relative="1" as="geometry" />
        </mxCell>
        <mxCell id="XJdJU15z8RzolVHAvxH--16" style="edgeStyle=orthogonalEdgeStyle;rounded=0;orthogonalLoop=1;jettySize=auto;html=1;entryX=0;entryY=0.5;entryDx=0;entryDy=0;" parent="1" source="XJdJU15z8RzolVHAvxH--6" target="XJdJU15z8RzolVHAvxH--13" edge="1">
          <mxGeometry relative="1" as="geometry" />
        </mxCell>
        <mxCell id="j-reUnlOrowOhb4wtbiG-2" style="edgeStyle=orthogonalEdgeStyle;rounded=0;orthogonalLoop=1;jettySize=auto;html=1;entryX=0;entryY=0.5;entryDx=0;entryDy=0;" parent="1" source="j-reUnlOrowOhb4wtbiG-1" target="XJdJU15z8RzolVHAvxH--1" edge="1">
          <mxGeometry relative="1" as="geometry" />
        </mxCell>
        <mxCell id="j-reUnlOrowOhb4wtbiG-1" value="&lt;font style=&quot;font-size: 16px;&quot;&gt;Query engine&lt;/font&gt;" style="whiteSpace=wrap;html=1;aspect=fixed;" parent="1" vertex="1">
          <mxGeometry x="-230" y="190" width="80" height="80" as="geometry" />
        </mxCell>
        <mxCell id="j-reUnlOrowOhb4wtbiG-3" value="&lt;font style=&quot;font-size: 16px;&quot;&gt;&lt;b&gt;Dereference (1)&lt;/b&gt;&lt;/font&gt;" style="text;html=1;align=center;verticalAlign=middle;whiteSpace=wrap;rounded=0;" parent="1" vertex="1">
          <mxGeometry x="-90" y="190" width="60" height="30" as="geometry" />
        </mxCell>
        <mxCell id="j-reUnlOrowOhb4wtbiG-4" style="edgeStyle=orthogonalEdgeStyle;rounded=0;orthogonalLoop=1;jettySize=auto;html=1;entryX=0.5;entryY=0;entryDx=0;entryDy=0;" parent="1" source="XJdJU15z8RzolVHAvxH--5" target="j-reUnlOrowOhb4wtbiG-1" edge="1">
          <mxGeometry relative="1" as="geometry" />
        </mxCell>
        <mxCell id="j-reUnlOrowOhb4wtbiG-5" value="&lt;font style=&quot;font-size: 16px;&quot;&gt;&lt;b&gt;Tranform tree:relation into boolean expressions E&lt;sub&gt;1&lt;/sub&gt; and E&lt;sub&gt;2&lt;/sub&gt;&lt;br&gt;(2)&lt;/b&gt;&lt;/font&gt;" style="text;html=1;align=center;verticalAlign=middle;whiteSpace=wrap;rounded=0;" parent="1" vertex="1">
          <mxGeometry x="-170" y="100" width="260" height="30" as="geometry" />
        </mxCell>
        <mxCell id="j-reUnlOrowOhb4wtbiG-6" value="&lt;div&gt;&lt;span style=&quot;font-size: 16px;&quot;&gt;&lt;b&gt;Pruned link related to unsatisfiable E and F couple&amp;nbsp;&lt;/b&gt;&lt;/span&gt;&lt;/div&gt;&lt;div&gt;&lt;span style=&quot;font-size: 16px;&quot;&gt;&lt;b&gt;(5)&lt;/b&gt;&lt;/span&gt;&lt;/div&gt;" style="text;html=1;align=center;verticalAlign=middle;whiteSpace=wrap;rounded=0;" parent="1" vertex="1">
          <mxGeometry x="320" y="30" width="240" height="30" as="geometry" />
        </mxCell>
        <mxCell id="j-reUnlOrowOhb4wtbiG-8" value="&lt;font style=&quot;font-size: 17px;&quot;&gt;Query&lt;/font&gt;" style="swimlane;whiteSpace=wrap;html=1;" parent="1" vertex="1">
          <mxGeometry x="-690" y="-310" width="570" height="380" as="geometry" />
        </mxCell>
        <mxCell id="j-reUnlOrowOhb4wtbiG-16" value="&lt;font style=&quot;font-size: 19px;&quot;&gt;PREFIX xsd: &amp;lt;http://www.w3.org/2001/XMLSchema#&amp;gt;&amp;nbsp;&lt;br style=&quot;padding: 0px; margin: 0px;&quot;&gt;PREFIX etsi: &amp;lt;https://saref.etsi.org/core/&amp;gt;&lt;br style=&quot;padding: 0px; margin: 0px;&quot;&gt;PREFIX dahcc: &amp;lt;https://dahcc.idlab.ugent.be/Ontology/Sensors/&amp;gt;&lt;br style=&quot;padding: 0px; margin: 0px;&quot;&gt;PREFIX saref: &amp;lt;https://saref.etsi.org/core/&amp;gt;&lt;br style=&quot;padding: 0px; margin: 0px;&quot;&gt;&lt;br style=&quot;padding: 0px; margin: 0px;&quot;&gt;&lt;br style=&quot;padding: 0px; margin: 0px;&quot;&gt;SELECT * WHERE {&lt;br style=&quot;padding: 0px; margin: 0px;&quot;&gt;&amp;nbsp; &lt;b&gt;?s etsi:hasTimestamp ?t&lt;/b&gt;;&lt;br style=&quot;padding: 0px; margin: 0px;&quot;&gt;&amp;nbsp; &amp;nbsp; etsi:hasValue ?result;&lt;br style=&quot;padding: 0px; margin: 0px;&quot;&gt;&amp;nbsp; &amp;nbsp; etsi:measurementMadeBy ?sensor.&lt;br style=&quot;padding: 0px; margin: 0px;&quot;&gt;&amp;nbsp; ?sensor dahcc:analyseStateOf ?stateOf;&lt;br style=&quot;padding: 0px; margin: 0px;&quot;&gt;&amp;nbsp; &amp;nbsp; saref:measuresProperty {:property}.&lt;br style=&quot;padding: 0px; margin: 0px;&quot;&gt;&amp;nbsp; FILTER(&lt;b&gt;?t=&quot;2022-01-03T10:57:54.000000&quot;^^xsd:dateTime&lt;/b&gt;)&lt;br style=&quot;padding: 0px; margin: 0px;&quot;&gt;}&lt;/font&gt;" style="text;html=1;align=left;verticalAlign=middle;whiteSpace=wrap;rounded=0;" parent="j-reUnlOrowOhb4wtbiG-8" vertex="1">
          <mxGeometry x="10" y="25" width="560" height="335" as="geometry" />
        </mxCell>
        <mxCell id="j-reUnlOrowOhb4wtbiG-9" value="" style="endArrow=classic;html=1;rounded=0;exitX=0.5;exitY=1;exitDx=0;exitDy=0;entryX=0;entryY=0.5;entryDx=0;entryDy=0;" parent="1" source="j-reUnlOrowOhb4wtbiG-8" target="j-reUnlOrowOhb4wtbiG-1" edge="1">
          <mxGeometry width="50" height="50" relative="1" as="geometry">
            <mxPoint x="-200" y="120" as="sourcePoint" />
            <mxPoint x="-150" y="70" as="targetPoint" />
            <Array as="points">
              <mxPoint x="-405" y="230" />
            </Array>
          </mxGeometry>
        </mxCell>
        <mxCell id="j-reUnlOrowOhb4wtbiG-11" value="&lt;font style=&quot;font-size: 16px;&quot;&gt;&lt;b&gt;Collect the filter expression segment F&lt;sub&gt;1&lt;/sub&gt; and F&lt;sub&gt;2&amp;nbsp;&lt;/sub&gt;&lt;/b&gt;&lt;b&gt;related to E&lt;sub&gt;1&lt;/sub&gt; and E&lt;sub&gt;2&lt;/sub&gt;&lt;br&gt;(3)&lt;/b&gt;&lt;/font&gt;" style="text;html=1;align=center;verticalAlign=middle;whiteSpace=wrap;rounded=0;" parent="1" vertex="1">
          <mxGeometry x="-710" y="130" width="300" height="80" as="geometry" />
        </mxCell>
        <mxCell id="j-reUnlOrowOhb4wtbiG-13" value="&lt;div&gt;&lt;span style=&quot;font-size: 16px;&quot;&gt;&lt;b&gt;Evaluate the satisfiability of E and F&lt;/b&gt;&lt;/span&gt;&lt;/div&gt;&lt;div&gt;&lt;span style=&quot;font-size: 16px;&quot;&gt;&lt;b&gt;(4)&lt;/b&gt;&lt;/span&gt;&lt;/div&gt;" style="text;html=1;align=center;verticalAlign=middle;whiteSpace=wrap;rounded=0;" parent="1" vertex="1">
          <mxGeometry x="-280" y="280" width="180" height="65" as="geometry" />
        </mxCell>
      </root>
    </mxGraphModel>
  </diagram>
</mxfile>
